{"title":"The Sicilian.DvDRip.XViD.AC3.SWESUB.avi","uid":5503286,"size":1473183086,"categoryP":"video","categoryS":"movies","magnet":"?xt=urn:btih:32ab28d8506d258dff081f9f27cbb889e6691e75&amp;dn=The+Sicilian.DvDRip.XViD.AC3.SWESUB.avi&amp;tr=udp%3A%2F%2Ftracker.openbittorrent.com%3A80&amp;tr=udp%3A%2F%2Fopen.demonii.com%3A1337&amp;tr=udp%3A%2F%2Ftracker.coppersurfer.tk%3A6969&amp;tr=udp%3A%2F%2Fexodus.desync.com%3A6969","seeders":1,"leechers":0,"uploader":"Zen_Bud","files":-1,"time":1271665892,"description":"General\nComplete name                    : The Sicilian.avi\nFormat                           : AVI\nFormat/Info                      : Audio Video Interleave\nFile size                        : 1.37 GiB\nDuration                         : 2h 20mn\nOverall bit rate                 : 1 402 Kbps\n\nVideo\nID                               : 0\nFormat                           : MPEG-4 Visual\nCodec ID/Hint                    : XviD\nDuration                         : 2h 20mn\nBit rate                         : 1 199 Kbps\nWidth                            : 702 pixels\nHeight                           : 436 pixels\nDisplay aspect ratio             : 2.25:1\nResolution                       : 8 bits\nColorimetry                      : 4:2:0\nScan type                        : Progressive\nBits/(Pixel*Frame)               : 0.157\nStream size                      : 1.17 GiB (86%)\nWriting library                  : XviD 1.1.2 (UTC 2006-11-01)\n\nAudio\nID                               : 1\nFormat                           : AC-3\nFormat/Info                      : Audio Coding 3\nCodec ID                         : 2000\nDuration                         : 2h 20mn\nBit rate mode                    : Constant\nBit rate                         : 192 Kbps\nChannel(s)                       : 2 channels\nChannel positions                : Front: L R\nSampling rate                    : 48.0 KHz\nStream size                      : 192 MiB (14%)\n\n\n","torrent":{"xt":"urn:btih:32ab28d8506d258dff081f9f27cbb889e6691e75","amp;dn":"The+Sicilian.DvDRip.XViD.AC3.SWESUB.avi","amp;tr":["udp%3A%2F%2Ftracker.openbittorrent.com%3A80","udp%3A%2F%2Fopen.demonii.com%3A1337","udp%3A%2F%2Ftracker.coppersurfer.tk%3A6969","udp%3A%2F%2Fexodus.desync.com%3A6969"],"infoHash":"32ab28d8506d258dff081f9f27cbb889e6691e75","infoHashBuffer":{"type":"Buffer","data":[50,171,40,216,80,109,37,141,255,8,31,159,39,203,184,137,230,105,30,117]},"announce":[],"urlList":[]}}